# xmcd
#
# Track frame offsets:
#	150
#	15484
#	32419
#	49814
#	65207
#	78798
#	91307
#	107076
#	123903
#	139719
#	153708
#	168464
#	185751
#
# Disc length: 2720 seconds
#
# Revision: 0
# Processed by: cddbd v1.5.1PL0 Copyright (c) Steve Scherf et al.
# Submitted via: audiograbber 1.83.01
#
DISCID=a80a9e0d
DTITLE=Σωκράτης Μάλαμας - Ο φύλακας κι ο βασιλιάς
DYEAR=2000
DGENRE=Folk
TTITLE0=Ο φύλακας κι ο βασιλιάς
TTITLE1=Τίποτα δε χάθηκε
TTITLE2=Φύλλα αλκαλικά
TTITLE3=ατο μετάξι
TTITLE4=Όλα ζούν αν τα θυμάσαι
TTITLE5=Ανήσυχες μέρες
TTITLE6=Του χιονιού τ σκυλιά
TTITLE7=Πουλί σε δέντρο αρχοντικό
TTITLE8=’νοιγμα στα πέρατα
TTITLE9=Το λιμάνι
TTITLE10=Έπιασε βροχή
TTITLE11=Πριγκηπέσα
TTITLE12=Χαμένο ρούχο
EXTD=
EXTT0=
EXTT1=
EXTT2=
EXTT3=
EXTT4=
EXTT5=
EXTT6=
EXTT7=
EXTT8=
EXTT9=
EXTT10=
EXTT11=
EXTT12=
PLAYORDER=
